# xmcd
#
# Track frame offsets: 
#        150
#        10870
#        23517
#        35495
#        43737
#        54420
#        64115
#        73692
#        84937
#        95210
#        105890
#        117352
#
# Disc length: 1720 seconds
#
# Revision: 2
# Processed by: cddbd v1.5.2PL0 Copyright (c) Steve Scherf et al.
# Submitted via: ExactAudioCopy v0.99pb4
#
DISCID=9206b60c
DTITLE=Lloyd Price - The Best Of Lloyd Price: 20th Century Masters The
DTITLE=Millennium Collection
DYEAR=2002
DGENRE=R&B Male 
TTITLE0=Stagger Lee
TTITLE1=Just Because
TTITLE2=Where Were You (On Our Wedding Day)
TTITLE3=Lawdy Miss Clawdy
TTITLE4=I'm Gonna Get Married
TTITLE5=Come Into My Heart
TTITLE6=Wont'cha Come Home
TTITLE7=Never Let Me Go
TTITLE8=Lady Luck
TTITLE9=No If's - No And's
TTITLE10=Question
TTITLE11=Personality
EXTD=
EXTT0=
EXTT1=
EXTT2=
EXTT3=
EXTT4=
EXTT5=
EXTT6=
EXTT7=
EXTT8=
EXTT9=
EXTT10=
EXTT11=
PLAYORDER=
